<mxfile host="app.diagrams.net" modified="2024-03-09T17:46:33.452Z" agent="Mozilla/5.0 (Macintosh; Intel Mac OS X 10_15_7) AppleWebKit/537.36 (KHTML, like Gecko) Chrome/121.0.0.0 Safari/537.36" etag="fZvj2dr5cYNsXRRr6UEN" version="23.1.5" type="github">
  <diagram name="Page-1" id="e7e014a7-5840-1c2e-5031-d8a46d1fe8dd">
    <mxGraphModel dx="1434" dy="912" grid="1" gridSize="10" guides="1" tooltips="1" connect="1" arrows="1" fold="1" page="1" pageScale="1" pageWidth="1169" pageHeight="826" background="none" math="0" shadow="0">
      <root>
        <mxCell id="0" />
        <mxCell id="1" parent="0" />
        <mxCell id="S4X5wkgFhnKSy_tRCB5_-45" value="" style="edgeStyle=orthogonalEdgeStyle;rounded=0;orthogonalLoop=1;jettySize=auto;html=1;" edge="1" parent="1" source="S4X5wkgFhnKSy_tRCB5_-41" target="S4X5wkgFhnKSy_tRCB5_-44">
          <mxGeometry relative="1" as="geometry" />
        </mxCell>
        <mxCell id="S4X5wkgFhnKSy_tRCB5_-49" value="1: checkInformationComplete(): Boolean" style="edgeLabel;html=1;align=center;verticalAlign=middle;resizable=0;points=[];" vertex="1" connectable="0" parent="S4X5wkgFhnKSy_tRCB5_-45">
          <mxGeometry x="0.0267" y="2" relative="1" as="geometry">
            <mxPoint as="offset" />
          </mxGeometry>
        </mxCell>
        <mxCell id="S4X5wkgFhnKSy_tRCB5_-48" style="edgeStyle=orthogonalEdgeStyle;rounded=0;orthogonalLoop=1;jettySize=auto;html=1;startArrow=classic;startFill=1;endArrow=none;endFill=0;" edge="1" parent="1" source="S4X5wkgFhnKSy_tRCB5_-41">
          <mxGeometry relative="1" as="geometry">
            <mxPoint x="110" y="180" as="targetPoint" />
          </mxGeometry>
        </mxCell>
        <mxCell id="S4X5wkgFhnKSy_tRCB5_-50" value=": validateProfileInfo(): Boolean" style="edgeLabel;html=1;align=center;verticalAlign=middle;resizable=0;points=[];" vertex="1" connectable="0" parent="S4X5wkgFhnKSy_tRCB5_-48">
          <mxGeometry x="-0.0345" y="-2" relative="1" as="geometry">
            <mxPoint x="-67" y="2" as="offset" />
          </mxGeometry>
        </mxCell>
        <mxCell id="S4X5wkgFhnKSy_tRCB5_-41" value=": ProfileManager" style="rounded=0;whiteSpace=wrap;html=1;" vertex="1" parent="1">
          <mxGeometry x="240" y="150" width="120" height="60" as="geometry" />
        </mxCell>
        <mxCell id="S4X5wkgFhnKSy_tRCB5_-44" value=":ValidationService" style="whiteSpace=wrap;html=1;rounded=0;" vertex="1" parent="1">
          <mxGeometry x="650" y="150" width="120" height="60" as="geometry" />
        </mxCell>
        <mxCell id="S4X5wkgFhnKSy_tRCB5_-53" style="edgeStyle=orthogonalEdgeStyle;rounded=0;orthogonalLoop=1;jettySize=auto;html=1;endArrow=oval;endFill=0;" edge="1" parent="1" source="S4X5wkgFhnKSy_tRCB5_-51">
          <mxGeometry relative="1" as="geometry">
            <mxPoint x="300" y="140" as="targetPoint" />
          </mxGeometry>
        </mxCell>
        <mxCell id="S4X5wkgFhnKSy_tRCB5_-51" value="Controller" style="shape=note;whiteSpace=wrap;html=1;backgroundOutline=1;darkOpacity=0.05;" vertex="1" parent="1">
          <mxGeometry x="240" y="50" width="120" height="50" as="geometry" />
        </mxCell>
        <mxCell id="S4X5wkgFhnKSy_tRCB5_-54" style="edgeStyle=orthogonalEdgeStyle;rounded=0;orthogonalLoop=1;jettySize=auto;html=1;endArrow=oval;endFill=0;" edge="1" parent="1" source="S4X5wkgFhnKSy_tRCB5_-52">
          <mxGeometry relative="1" as="geometry">
            <mxPoint x="710" y="140" as="targetPoint" />
          </mxGeometry>
        </mxCell>
        <mxCell id="S4X5wkgFhnKSy_tRCB5_-52" value="Pure Fabrication" style="shape=note;whiteSpace=wrap;html=1;backgroundOutline=1;darkOpacity=0.05;" vertex="1" parent="1">
          <mxGeometry x="615" y="50" width="190" height="50" as="geometry" />
        </mxCell>
      </root>
    </mxGraphModel>
  </diagram>
</mxfile>
